<svg width="20" height="20" viewBox="0 0 20 20" fill="none" xmlns="http://www.w3.org/2000/svg">
<g clip-path="url(#clip0_6842_12073)">
<path d="M9.16675 7.63366V1.66699C5.00008 2.08366 1.66675 5.65866 1.66675 10.0003C1.66675 14.342 5.00008 17.917 9.16675 18.3337V12.367C8.33342 12.0253 7.50008 11.1003 7.50008 10.0003C7.50008 8.90033 8.33342 7.97533 9.16675 7.63366ZM12.3834 9.16699H18.3334C17.9334 5.20866 15.0001 2.05866 10.8334 1.66699V7.63366C11.6667 7.88366 12.1001 8.45033 12.3834 9.16699ZM10.8334 12.367V18.3337C15.0001 17.942 17.9334 14.792 18.3334 10.8337H12.3834C12.1001 11.5503 11.6667 12.117 10.8334 12.367Z" fill="current"/>
</g>
<defs>
<clipPath id="clip0_6842_12073">
<rect width="20" height="20" fill="white"/>
</clipPath>
</defs>
</svg>
