<svg width="20" height="20" viewBox="0 0 20 20" fill="none" xmlns="http://www.w3.org/2000/svg">
<g clip-path="url(#clip0_6842_12076)">
<path fill-rule="evenodd" clip-rule="evenodd" d="M13.8916 10.9414C15.0333 11.7164 15.8333 12.7664 15.8333 14.1664V16.6664H19.1666V14.1664C19.1666 12.3497 16.1916 11.2747 13.8916 10.9414Z" fill="current"/>
<path d="M7.49984 9.99967C9.34079 9.99967 10.8332 8.50729 10.8332 6.66634C10.8332 4.82539 9.34079 3.33301 7.49984 3.33301C5.65889 3.33301 4.1665 4.82539 4.1665 6.66634C4.1665 8.50729 5.65889 9.99967 7.49984 9.99967Z" fill="current"/>
<path fill-rule="evenodd" clip-rule="evenodd" d="M12.4999 9.99967C14.3416 9.99967 15.8333 8.50801 15.8333 6.66634C15.8333 4.82467 14.3416 3.33301 12.4999 3.33301C12.1083 3.33301 11.7416 3.41634 11.3916 3.53301C12.0833 4.39134 12.4999 5.48301 12.4999 6.66634C12.4999 7.84967 12.0833 8.94134 11.3916 9.79967C11.7416 9.91634 12.1083 9.99967 12.4999 9.99967Z" fill="current"/>
<path fill-rule="evenodd" clip-rule="evenodd" d="M7.49992 10.833C5.27492 10.833 0.833252 11.9497 0.833252 14.1663V16.6663H14.1666V14.1663C14.1666 11.9497 9.72492 10.833 7.49992 10.833Z" fill="current"/>
</g>
<defs>
<clipPath id="clip0_6842_12076">
<rect width="20" height="20" fill="white"/>
</clipPath>
</defs>
</svg>
